<?xml version="1.0" standalone="no"?>
<!DOCTYPE svg PUBLIC "-//W3C//DTD SVG 20010904//EN"
 "http://www.w3.org/TR/2001/REC-SVG-20010904/DTD/svg10.dtd">
<svg version="1.0" xmlns="http://www.w3.org/2000/svg"
 width="335.000000pt" height="150.000000pt" viewBox="0 0 335.000000 150.000000"
 preserveAspectRatio="xMidYMid meet">

<g transform="translate(0.000000,150.000000) scale(0.100000,-0.100000)"
fill="#000000" stroke="none">
<path d="M2090 1126 c0 -15 -58 -146 -65 -146 -2 0 0 12 6 26 5 15 7 29 4 32
-7 7 -54 -98 -57 -128 -3 -23 1 -25 41 -28 34 -3 42 0 38 11 -8 22 8 40 31 33
14 -5 22 -17 24 -39 2 -18 8 -32 13 -32 6 0 11 14 13 32 4 42 39 56 60 24 19
-28 92 -31 92 -3 -1 26 -56 127 -63 115 -4 -6 5 -27 19 -48 29 -43 26 -60 -4
-18 -28 41 -82 150 -82 168 0 11 -10 15 -35 15 -23 0 -35 -5 -35 -14z m53
-100 c7 -18 -1 -26 -25 -26 -18 0 -25 20 -11 33 11 12 31 8 36 -7z m-132 -79
c-10 -9 -11 -8 -5 6 3 10 9 15 12 12 3 -3 0 -11 -7 -18z"/>
<path d="M2300 1085 c-10 -30 -6 -133 7 -185 4 -14 7 -29 7 -34 1 -15 56 -18
73 -5 11 10 13 24 8 61 -4 26 -5 48 -2 48 15 0 67 -61 67 -79 0 -12 5 -21 10
-21 6 0 10 12 10 26 0 24 46 92 58 87 7 -3 10 -24 13 -80 2 -38 5 -43 28 -43
13 0 32 7 42 16 16 14 16 19 4 38 -15 24 -39 170 -31 192 4 11 -4 14 -34 14
-29 0 -40 -5 -45 -19 -3 -10 -17 -31 -31 -46 l-25 -27 -38 40 c-27 28 -48 41
-74 44 -34 4 -38 1 -47 -27z"/>
<path d="M1699 1100 c0 -3 0 -28 1 -56 1 -35 -3 -54 -14 -63 -11 -9 -16 -30
-16 -62 0 -51 15 -69 59 -69 18 0 21 6 21 48 0 41 3 48 20 49 16 1 20 -4 20
-33 0 -24 5 -34 15 -34 10 0 15 11 15 35 0 24 5 35 15 35 11 0 15 -11 15 -39
0 -21 6 -44 14 -50 20 -17 63 -3 70 22 10 37 7 157 -4 157 -5 0 -10 15 -10 33
0 28 -3 32 -29 33 -27 1 -30 -2 -38 -45 -8 -46 -9 -46 -48 -46 -40 0 -40 0
-45 45 -5 41 -7 45 -32 45 -16 1 -28 -2 -29 -5z"/>
<path d="M1931 1074 c0 -11 3 -14 6 -6 3 7 2 16 -1 19 -3 4 -6 -2 -5 -13z"/>
<path d="M1426 1038 c-13 -13 -41 -56 -61 -95 -37 -73 -61 -96 -49 -48 7 26
-20 70 -37 60 -4 -3 -11 -1 -14 5 -4 7 -41 10 -96 8 -83 -2 -90 -4 -95 -25 -3
-12 -3 -27 2 -34 4 -7 3 -10 -3 -6 -21 13 -40 -153 -19 -168 14 -11 28 -77 14
-69 -4 3 -8 0 -8 -5 0 -6 7 -11 15 -11 9 0 15 9 15 23 0 28 9 41 38 56 14 7
22 21 22 36 0 32 5 31 38 -6 19 -22 39 -32 71 -36 42 -6 43 -5 36 18 -4 13
-13 34 -21 45 -11 19 -11 24 5 38 22 20 38 21 21 1 -20 -24 -1 -37 53 -34 33
2 52 -1 55 -9 7 -23 20 -12 26 23 4 19 11 35 16 35 6 0 10 7 10 15 0 8 -4 15
-10 15 -5 0 -10 -5 -10 -11 0 -6 -6 -9 -14 -6 -8 3 -17 1 -20 -6 -2 -7 -5 -4
-5 6 -1 9 5 17 12 17 6 0 22 3 35 6 19 6 22 3 22 -24 0 -34 13 -42 71 -42 34
0 40 3 35 18 -2 9 -15 58 -27 107 -29 121 -67 153 -123 103z m27 -74 c8 -50 0
-64 -37 -63 l-31 1 30 7 c31 7 34 15 21 66 -4 14 -2 25 3 25 4 0 11 -16 14
-36z m-236 -69 c-7 -17 -47 -21 -47 -5 0 11 41 31 49 24 2 -2 1 -10 -2 -19z"/>
<path d="M805 1007 c-17 -8 -43 -29 -58 -46 -52 -62 -26 -153 49 -167 l35 -6
-7 -44 c-4 -30 -3 -44 5 -44 12 0 15 7 25 53 5 19 13 27 28 27 38 0 98 23 102
39 27 92 15 113 -69 115 -50 0 -53 2 -39 17 14 16 20 16 54 4 36 -13 39 -12
60 10 l22 23 -22 12 c-34 18 -150 23 -185 7z m40 -106 c-4 -14 0 -21 15 -26
11 -3 20 -11 20 -16 0 -12 -57 -12 -65 1 -3 6 -1 10 4 10 6 0 11 8 11 18 0 17
8 32 17 32 3 0 2 -9 -2 -19z"/>
</g>
</svg>
